<svg xmlns="http://www.w3.org/2000/svg" width="1200" height="1200" version="1.0" fill="#FDA523" viewBox="0 0 900 900"><path d="M397.5 3.5c-35.5 5-50.8 8.2-80 16.8-39.4 11.7-87.7 35.1-125 60.5-12.5 8.5-40.4 31-53.5 43.3-22 20.4-47.3 50.1-62.8 73.6-15.3 23.3-17.1 26.4-29.7 51.4-14.1 27.9-20.3 42.8-26.8 64.4C10.5 344 9.8 347.2 1.5 402c-3.3 21.3-1 38.5 7.5 56.7 7.7 16.5 17.9 29.2 40.8 50.7 13.8 12.9 33.8 28.1 55.7 42.3 17.1 11 48.3 28.3 63.5 35 17.7 7.9 45.6 18.4 56.5 21.2 33.2 8.6 70.2 15.7 107 20.6 6.6.9 17 2.3 23 3.2 14.3 2.1 83.8 3 103 1.3 24.3-2.1 51.4-7.2 68.4-12.9 9.3-3.1 21.1-9.6 29.8-16.3l5.3-4-2.8-2.7c-3-3-19.4-21.7-26-29.8-2.4-2.9-4.1-5.7-3.8-6.2.3-.4 2.7-1.6 5.3-2.6 2.6-1 5.8-2.4 6.9-3.2 2-1.2 3.6-.4 20.5 9.7 10.1 6.1 20.4 12.7 22.8 14.6l4.4 3.4 3.6-2.2c2-1.1 5.2-3.1 7.1-4.3 18.4-11.7 33-20.7 48-29.9 15.9-9.8 30-18.7 30-19.1 0-.2-5.7-4.4-12.7-9.5-25.2-18-30-21.5-44.8-32.5-8.2-6.1-21.9-16.2-30.2-22.4-8.4-6.2-15.3-11.6-15.3-12 0-.4 5.7-3 12.7-6 14.4-6.1 14.3-6.1 26.6-.2 4.5 2.1 14.3 6.6 21.7 9.9 7.4 3.4 25.2 11.3 39.5 17.8 14.3 6.4 32.1 14.3 39.5 17.6 7.4 3.2 14.3 6.3 15.3 6.9 1.4.7 3.2.5 7.1-1 5.9-2.2 22.3-9.1 30.6-12.8 17.6-8 33.7-13.6 40.6-14.1 7-.4 7.2-.4 10.9 3 4.8 4.4 5.8 10.4 2.7 16.4-2.6 5-13.1 14.9-20.3 19-3 1.7-11.6 6.8-19.2 11.3-7.6 4.4-14 8.1-14.4 8.1-.3 0-3.1 1.7-6.2 3.9-3.1 2.1-6.6 4.1-7.8 4.5-1.6.5-2.3 1.8-2.8 4.9-.4 2.3-2.4 11.8-4.5 21.2-2 9.3-4.8 21.9-6 28-1.3 6-3.4 15.7-4.7 21.5-1.3 5.8-3.9 17.7-5.8 26.5-8.7 40.8-7.9 38.6-15.7 43.7-7.5 4.9-17.4 10.8-18.2 10.8-.3 0-.6-28.8-.5-64.1 0-35.2-.1-64.3-.4-64.5-.3-.3-1.8.1-3.4 1-1.6.8-7.8 3.5-13.9 5.9-30.2 12.4-53.1 22-64.5 27.1-7 3.1-13.2 5.6-13.8 5.6-.6 0-1.1 1.4-1.1 3.2 0 1.8-.4 8-1 13.8-.5 5.8-1.4 16.1-1.9 22.8-.6 6.8-1.5 13-2.2 13.8-1.5 1.9-10.6 6.4-12.7 6.4-1.3 0-2.1-1.9-3.4-8.3-4.8-23.8-8.1-39.2-8.4-39.5-.8-1.1-52.9 17-61.6 21.4-8.7 4.4-68.7 23.8-94.8 30.7-37.5 9.9-60.5 14.5-102.5 20.3-15.7 2.2-20.3 2.5-36.5 2-46.1-1.3-120.2-14.9-163.9-30.1-32.5-11.3-67.8-28.5-74-35.9-3.2-3.8-4.3.6-1.5 5.9.8 1.6 3.5 7.5 5.9 13 7.4 16.7 15.9 33.4 23 45 3.7 6 7.7 12.6 8.9 14.5 1.1 1.9 5.7 8.5 10.1 14.6 22.8 31.6 57.9 67.7 86.5 89 16.9 12.6 38.7 27.2 46 30.9 1.9 1 4.2 2.3 5 3 2.3 2 32.2 16.8 44.5 22 49.6 21.2 106.9 35 148.3 35.7 11.1.2 8.5 1.7-3.5 2.1-6 .1 13.7.3 43.7.3 30 0 50.2-.2 45-.3-5.2-.2-9.8-.7-10.3-1.2-.4-.4 3.6-1.1 9-1.5 35.5-2.5 88.2-15.4 122-30 34.2-14.8 40.6-18.1 69.9-36.3 25.2-15.7 38.1-25.3 59.8-44.7 50.2-44.9 87.1-96 114.6-158.6 8.6-19.7 14.4-36.8 21-62.5 8.3-32.6 11.9-53.7 12.1-71 0-9.2 1.1-14.5 2.3-11.5.3.8.7 6.2.9 12 .1 5.8.3-13.6.3-43s-.2-45.7-.3-36.2c-.2 9.4-.7 17.2-1.2 17.2-.4 0-1.1-7.8-1.5-17.3-1.4-34.2-6-59.3-18.5-101.2-10.2-34-30.3-76.5-51.9-109.5-11.2-17.1-32.1-43.6-47.5-60-34.9-37.4-70.3-64.6-119.2-91.8C636.4 39.4 593.6 23 564 15.5 518 3.9 486.6 0 442 .1c-18.5.1-24.7.6-44.5 3.4zm501.4 467.2c-.1 9.3-1.7 11.1-1.8 2-.1-4.5.3-7.7.9-7.7.6 0 1 2.5.9 5.7zm-420.1 427c-1 .2-2.6.2-3.5 0-1-.3-.2-.5 1.7-.5s2.7.2 1.8.5z"/><path d="M618.2 577.5c0 1.6.2 2.2.5 1.2.2-.9.2-2.3 0-3-.3-.6-.5.1-.5 1.8zM622.8 587.7c.7.3 1.6.2 1.9-.1.4-.3-.2-.6-1.3-.5-1.1 0-1.4.3-.6.6zM872.7 616c-.3 1.1-.1 2 .4 2s.9-.9.9-2-.2-2-.4-2-.6.9-.9 2z"/></svg>