<svg xmlns="http://www.w3.org/2000/svg" width="400" height="66"><path fill="#0A96D3" d="M127 1c.87 2.685 1.22 4.348.308 7.05-1.714 2.556-3.077 2.925-5.992 3.837l-2.81.904-2.944.896-2.931.932c-1.796.57-3.594 1.133-5.394 1.688A256.761 256.761 0 0 0 102 18v4l2.813-1.063c5.804-1.621 11.983-1.32 17.53 1.075C129.208 26.07 132.975 31.337 135 39c.703 6.565-.781 11.8-4.512 17.18-3.477 4.266-6.904 7.804-12.488 8.82-6.994.66-14.126 1.157-20.32-2.605C92.409 58.018 89.179 52.766 88 46c-.302-3.962-.325-7.903-.313-11.875l-.048-3.145c-.005-7.355.538-14.192 5.052-20.25C97.763 6.548 102.74 3.99 109 2l2.133-.684C116.023-.074 122.269-1.366 127 1Zm-23.797 34.309C100.881 38.573 100.702 42.093 101 46c1.328 3.592 2.592 4.722 5.75 6.875 4.042 1.4 6.161 1.389 10.25.125 3.44-3.074 4.828-4.927 5.563-9.5-.766-4.76-2.509-7.994-6.438-10.875-5.219-1.535-8.791-1.132-12.922 2.684ZM205.566 21.54l3.909.01 2.032.038c2.052.037 4.102.041 6.155.04C227.72 21.72 227.72 21.72 230 24c.2 2.917.28 5.738.266 8.656l.005 2.6c.002 1.816-.002 3.632-.01 5.448-.011 2.785 0 5.57.012 8.355 0 1.761-.003 3.523-.007 5.285l.012 2.535C230.23 62.77 230.23 62.77 228 65c-1.935.254-1.935.254-4.326.259l-2.71.019-2.933-.012-3.004.005c-2.098.002-4.196-.002-6.294-.01-3.22-.011-6.439 0-9.659.012-2.035 0-4.07-.003-6.105-.007l-2.933.012-2.71-.02c-.789 0-1.578-.002-2.39-.004C183 65 183 65 181 63c-.375-2.938-.375-2.938 0-6 2.264-2.264 3.948-2.983 7-4 1.124-2.623 1.124-2.623 1.938-5.863l1.023-3.627L192 39.688c.68-2.478 1.367-4.953 2.063-7.426l.91-3.345c2.199-6.244 3.92-7.424 10.593-7.378ZM207 34c-.84 2.581-1.673 5.165-2.5 7.75l-.723 2.21-.683 2.15-.635 1.967c-.614 2.242-.614 2.242-.459 5.923h16V34h-11Z"/><path fill="#0A96D4" d="M174 24c4.714 4.68 7.129 8.2 7.25 15l.078 2.625C181 44 181 44 179.853 45.63c-2.644 1.955-4.572 1.71-7.833 1.663l-3.526-.03-3.681-.075-3.717-.042c-3.033-.035-6.064-.084-9.096-.146 2.007 3.688 2.007 3.688 5.125 6.375 4.118.895 7.745.254 11.875-.375 1.52-.191 3.041-.38 4.563-.563L177 52c2.046 2.21 2.96 3.46 3.188 6.5-1.604 3.376-3.458 4.239-6.82 5.71-7.679 2.56-15.697 2.278-23.368-.21-5.075-2.593-9.098-6.175-11.371-11.465-1.766-7.119-2.324-15.658 1.496-22.16 4.273-5.49 8.54-8.938 15.441-10.16 6.568-.58 12.894.007 18.434 3.785Zm-22 12v2h16c-1.476-5.06-1.476-5.06-5-7-5.518-.84-7.56.75-11 5ZM77 26c4.58 3.985 7.55 8.506 8.336 14.613.117 8.086-1.505 13.034-6.711 19.2-5.79 4.825-11.627 6.553-19.078 6.007C53.135 64.857 48.644 62.521 44 58c-4.472-6.059-4.72-12.674-4-20 1.728-5.865 4.92-9.58 10-13 9.061-4.75 18.19-4.115 27 1ZM55 36c-2.331 3.42-3 5.41-3 9.563 1.205 4.143 2.603 5.812 6 8.437 3.478 1.465 4.955 1.013 8.625-.063C70.6 51.657 71.661 50.352 73 46c0-4.336-.54-6.379-3.125-9.875C64.745 32.333 59.961 31.728 55 36ZM250.313 21.75l3.925-.078c4.808.42 8.034 1.737 11.59 5.012l1.422 1.753 1.453 1.747c4.26 5.965 3.664 11.753 3.672 18.878l.074 3.627.012 3.471.025 3.176C272 62 272 62 270.098 63.863c-2.46 1.333-3.459 1.314-6.16.762-3.828-.918-3.828-.918-6.938.375-7.656.631-13.858.94-20-4-3.65-3.885-3.505-8.245-3.348-13.34.654-4.998 2.9-7.546 6.786-10.535C245.905 35.398 251.313 35.772 257 36v-2c-4.918-1.574-9.765-1.182-14.813-.438C239 34 239 34 237 33c-.875-2.25-.875-2.25-1-5 3.87-6.083 7.435-6.168 14.313-6.25ZM245 48c-.5 2.856-.451 4.298 1.125 6.75 2.67 1.78 4.675 2.122 7.875 2.25 2.327-1.138 4.168-2.168 6-4 .417-2.415.417-2.415 0-5-2.37-2.749-3.874-2.987-7.5-3.375-3.626.388-5.13.626-7.5 3.375Z"/><path fill="#0A95D4" d="m9.969 21.602 2.05-.01c1.43-.001 2.858.004 4.287.017 2.186.016 4.371 0 6.557-.02a5413598888.5 5413598888.5 0 0 1 7.998.022C34 22 34 22 35.908 23.01c1.777 3.24 1.54 6.633 1.526 10.236l.015 2.447c.007 1.707.006 3.415-.003 5.122-.008 2.61.02 5.218.052 7.828.002 1.66.001 3.319-.002 4.978l.034 2.362c-.045 3.533-.256 5.633-2.334 8.545C33 66 33 66 29.375 65.938 26 65 26 65 24 62c-.319-2.82-.319-2.82-.414-6.2l-.117-3.661-.094-3.827-.117-3.86C23.163 41.3 23.078 38.15 23 35l-10-1-.028 2.615c-.044 3.204-.106 6.407-.18 9.61-.028 1.386-.049 2.772-.063 4.159-.021 1.993-.07 3.986-.12 5.98l-.063 3.633C12 63 12 63 10.157 64.927 7.107 66.445 5.22 65.91 2 65c-2.595-2.595-2.259-4.407-2.304-7.943l.003-2.46-.013-2.525a926.498 926.498 0 0 1-.002-5.293c.003-2.702-.02-5.403-.045-8.105-.003-1.713-.003-3.426-.002-5.139l-.028-2.453c.046-5.637.046-5.637 1.718-7.795 2.703-2.08 5.294-1.676 8.642-1.685Z"/><path fill="#0A96D4" d="M307.203 30.684c4.799 2.514 7.617 6.268 9.547 11.253.747 6.165.336 10.587-2.75 16.063-4.577 4.715-7.977 7.156-14.625 7.375-6.016-.072-10.05-1.091-14.375-5.375-3.445-4.502-4.669-9.129-4.387-14.762.904-5.23 3.133-9.045 6.95-12.675 5.61-3.597 13.32-3.84 19.64-1.88Z"/><path fill="#75B1E2" d="M350.5 31.688c4.33 4.005 7.258 7.442 8.5 13.312.098 6.059-1.034 10.262-5 15-5.464 4.814-8.766 5.364-15.953 5.27-5.172-.458-7.995-2.045-11.578-5.93-3.438-4.65-4.243-8.928-3.95-14.656 1.065-5.947 3.948-9.432 8.543-13.184 6.075-2.984 13.463-2.693 19.438.188Z"/><path fill="#A4C8EB" d="M392.5 31.688c3.826 3.538 7.288 6.79 7.738 12.14.248 11.443.248 11.443-4.238 16.172-5.252 4.74-9.318 5.354-16.207 5.281-5.365-.54-8.506-2.892-12.168-6.844-3.417-5.125-3.086-10.48-2.625-16.437 1.763-5.29 4.612-7.8 9-11 6.034-2.011 12.765-2.078 18.5.688Z"/></svg>